<svg xmlns="http://www.w3.org/2000/svg" width="1269.167" height="318.267" viewBox="989.55 3236.833 1269.167 318.267"><g data-name="Element"><g data-name="Rectangle 607" transform="translate(1181 3249.55)" clip-path="url(&quot;#a&quot;)"><g data-name="Group 1000001426"><g data-name="Group"><path d="M1073.662 121.105a1624.074 1624.074 0 0 0-12.796-17.594c-17.107-23.018-35.674-45.41-58.831-62.517-23.783-17.664-52.434-27.886-82.267-26.217-15.508.904-30.806 4.729-44.854 11.335-14.047 6.676-26.356 16.342-38.039 26.426-11.752 10.083-23.018 20.792-35.813 29.554-12.796 8.763-26.982 14.952-42.003 18.637-30.737 7.58-62.865 5.633-94.158 5.077-29.833-.557-59.596.278-88.595 8.345-52.364 14.534-97.496 46.523-141.237 77.538-44.437 31.571-89.708 64.325-142.42 80.458-2.712.765-3.616 4.938-.835 6.329 2.365 1.182 4.66 2.295 7.024 3.477 3.964 2.016 7.51-3.964 3.477-5.98-2.364-1.183-4.66-2.296-7.023-3.478-.279 2.086-.557 4.242-.835 6.328 6.328-1.877 12.517-4.033 18.637-6.397 50.556-19.61 94.089-52.712 138.108-83.658 43.254-30.39 88.873-60.57 141.516-71.418 30.32-6.26 61.335-4.73 92.072-4.173 30.11.556 61.265.417 89.985-9.875 14.117-5.076 26.843-12.587 38.665-21.766 11.961-9.318 22.949-19.82 34.632-29.485 12.239-10.014 25.382-18.846 40.403-24.061a116.009 116.009 0 0 1 45.688-6.12c60.848 4.172 100.834 57.232 133.449 102.712 2.642 3.616 8.623.139 6.05-3.477Z" fill="#fff" fill-rule="evenodd" data-name="Vector"/></g><g data-name="Group"><g data-name="Vector"><path d="M1076.861 70.826c-6.467-7.65-13.351-14.951-20.723-21.697C995.43-6.573 908.364-26.184 829.783-1.497c-40.751 12.796-74.757 36.648-104.729 66.62-31.223 31.224-59.596 65.717-98.539 87.83-84.84 48.123-186.23 39.152-279.693 34.076-93.88-5.147-187.204.556-278.998 20.723-90.055 19.75-177.26 52.225-258.344 96.244-.487.278-.07 1.043.417.765a950.11 950.11 0 0 1 30.111-15.716c82.406-41.168 170.723-70.514 261.335-87.204a983.429 983.429 0 0 1 138.316-15.438c48.331-1.878 96.384.904 144.645 3.546 87.552 4.729 183.588 5.355 258.9-46.453 34.84-23.992 61.127-57.788 91.586-86.717C766.848 26.319 804.887 4.275 848.211-5.6c83.797-19.054 172.81 11.405 228.094 77.052.348.417.974-.209.557-.626Z" fill="#fff" fill-rule="evenodd"/><path d="M1076.861 70.826c-6.467-7.65-13.351-14.951-20.723-21.697C995.43-6.573 908.364-26.184 829.783-1.497c-40.751 12.796-74.757 36.648-104.729 66.62-31.223 31.224-59.596 65.717-98.539 87.83-84.84 48.123-186.23 39.152-279.693 34.076-93.88-5.147-187.204.556-278.998 20.723-90.055 19.75-177.26 52.225-258.344 96.244-.487.278-.07 1.043.417.765a950.11 950.11 0 0 1 30.111-15.716c82.406-41.168 170.723-70.514 261.335-87.204a983.429 983.429 0 0 1 138.316-15.438c48.331-1.878 96.384.904 144.645 3.546 87.552 4.729 183.588 5.355 258.9-46.453 34.84-23.992 61.127-57.788 91.586-86.717C766.848 26.319 804.887 4.275 848.211-5.6c83.797-19.054 172.81 11.405 228.094 77.052.348.417.974-.209.557-.626Z" stroke-linejoin="round" stroke-linecap="round" stroke="#fff" fill="transparent"/></g></g></g></g></g><defs><clipPath id="a"><path d="M0 0h739v215H0V0z" data-name="Rectangle 607" transform="rotate(180 369.5 107.725)"/></clipPath></defs></svg>